#define aro5_width 22
#define aro5_height 22
static char aro5_bits[] = {
  0x00, 0x00, 0x00, 0x00, 0x00, 0x00, 0x00, 0x00, 0x00, 0x00, 0x1C, 0x00, 
  0x00, 0x63, 0x00, 0xC0, 0x80, 0x01, 0x30, 0x00, 0x06, 0x08, 0x00, 0x08, 
  0x48, 0x00, 0x19, 0x50, 0x00, 0x05, 0x90, 0x80, 0x04, 0xA0, 0x80, 0x06, 
  0x20, 0x41, 0x06, 0x40, 0x41, 0x01, 0x40, 0x00, 0x03, 0x80, 0xFF, 0x00, 
  0x00, 0xAA, 0x00, 0x00, 0x00, 0x00, 0x00, 0x00, 0x00, 0x00, 0x00, 0x00, 
  0x00, 0x00, 0x00, 0x00, 0x00, 0x00, };
