/* Created with The GIMP */
#define pentdiene_width 16
#define pentdiene_height 16
static unsigned char pentdiene_bits[] = {
   0x00, 0x00, 0xc0, 0x03, 0x60, 0x06, 0x38, 0x1c, 0x0e, 0x70, 0x02, 0x40,
   0x12, 0x48, 0x16, 0x68, 0x24, 0x24, 0x2c, 0x34, 0x48, 0x12, 0x58, 0x1a,
   0x10, 0x08, 0xf0, 0x0f, 0x00, 0x00, 0x00, 0x00 };
