#define aro66_width 34
#define aro66_height 20
static char aro66_bits[] = {
  0x00, 0x00, 0x00, 0x00, 0x00, 0x00, 0x03, 0x80, 0x01, 0x00, 0xC0, 0x0C, 
  0x60, 0x06, 0x00, 0x30, 0x30, 0x18, 0x18, 0x00, 0x0C, 0xC6, 0x07, 0x63, 
  0x00, 0x02, 0x18, 0x01, 0x8C, 0x00, 0x0A, 0x60, 0x01, 0xB0, 0x01, 0x0A, 
  0x00, 0x01, 0x80, 0x00, 0x0A, 0x00, 0x01, 0x80, 0x01, 0x0A, 0x00, 0x01, 
  0x80, 0x00, 0x0A, 0x00, 0x01, 0x80, 0x01, 0x0A, 0x00, 0x01, 0x80, 0x00, 
  0x0A, 0x60, 0x01, 0xB0, 0x01, 0x02, 0x18, 0x01, 0x8C, 0x00, 0x0C, 0xC6, 
  0x07, 0x63, 0x00, 0x30, 0xB0, 0x18, 0x58, 0x00, 0xC0, 0x1C, 0x60, 0x06, 
  0x00, 0x00, 0x07, 0x80, 0x05, 0x00, 0x00, 0x00, 0x00, 0x00, 0x00, 0x00, 
  0x00, 0x00, 0x00, 0x00, };
