#define aro65_width 34
#define aro65_height 20
static char aro65_bits[] = {
  0x00, 0x00, 0x00, 0x00, 0x00, 0x00, 0x03, 0x00, 0x00, 0x00, 0xC0, 0x0C, 
  0x80, 0x01, 0x00, 0x30, 0x30, 0x70, 0x02, 0x00, 0x0C, 0xC6, 0x0F, 0x04, 
  0x00, 0x02, 0x18, 0x01, 0x08, 0x00, 0x0A, 0x60, 0x01, 0x10, 0x00, 0x0A, 
  0x00, 0x01, 0x20, 0x00, 0x0A, 0x00, 0x01, 0x40, 0x00, 0x0A, 0x00, 0x01, 
  0x80, 0x00, 0x0A, 0x00, 0x01, 0x40, 0x00, 0x0A, 0x00, 0x01, 0x60, 0x00, 
  0x0A, 0x60, 0x01, 0x30, 0x00, 0x02, 0x18, 0x01, 0x08, 0x00, 0x0C, 0xC6, 
  0x0F, 0x0C, 0x00, 0x30, 0xB0, 0x70, 0x02, 0x00, 0xC0, 0x1C, 0x80, 0x01, 
  0x00, 0x00, 0x07, 0x00, 0x00, 0x00, 0x00, 0x00, 0x00, 0x00, 0x00, 0x00, 
  0x00, 0x00, 0x00, 0x00, };
