#define cyc3_width 22
#define cyc3_height 22
static char cyc3_bits[] = {
  0x00, 0x00, 0x00, 0x00, 0x00, 0x00, 0x00, 0x18, 0x00, 0x00, 0x14, 0x00, 
  0x00, 0x14, 0x00, 0x00, 0x62, 0x00, 0x00, 0x22, 0x00, 0x00, 0xC1, 0x00, 
  0x00, 0x41, 0x00, 0x80, 0x80, 0x00, 0x80, 0x80, 0x01, 0x40, 0x00, 0x01, 
  0x40, 0x00, 0x01, 0x20, 0x00, 0x06, 0x20, 0x00, 0x06, 0x10, 0x00, 0x04, 
  0xF0, 0xFF, 0x07, 0x80, 0x59, 0x05, 0x00, 0x00, 0x00, 0x00, 0x00, 0x00, 
  0x00, 0x00, 0x00, 0x00, 0x00, 0x00, };
