#define cyc3_width 20
#define cyc3_height 20
static char cyc3_bits[] = {
  0x00, 0x00, 0x00, 0x00, 0x00, 0x00, 0x00, 0x02, 0x00, 0x00, 0x05, 0x00, 
  0x00, 0x05, 0x00, 0x80, 0x08, 0x00, 0x80, 0x18, 0x00, 0x40, 0x10, 0x00, 
  0x40, 0x10, 0x00, 0x20, 0x60, 0x00, 0x20, 0x20, 0x00, 0x10, 0xC0, 0x00, 
  0x10, 0x40, 0x00, 0x08, 0x80, 0x00, 0x08, 0x80, 0x01, 0x04, 0x00, 0x01, 
  0xFC, 0xFF, 0x01, 0x60, 0x59, 0x02, 0x00, 0x00, 0x00, 0x00, 0x00, 0x00, 
  };
