#define cyc4_width 22
#define cyc4_height 20
static char cyc4_bits[] = {
  0x00, 0x00, 0x00, 0x00, 0x00, 0x00, 0xF8, 0xFF, 0x03, 0x08, 0x00, 0x02, 
  0x08, 0x00, 0x02, 0x08, 0x00, 0x06, 0x08, 0x00, 0x02, 0x08, 0x00, 0x06, 
  0x08, 0x00, 0x02, 0x08, 0x00, 0x06, 0x08, 0x00, 0x02, 0x08, 0x00, 0x06, 
  0x08, 0x00, 0x02, 0x08, 0x00, 0x06, 0x08, 0x00, 0x02, 0x08, 0x00, 0x06, 
  0xF8, 0xFF, 0x07, 0x60, 0x59, 0x01, 0x00, 0x00, 0x00, 0x00, 0x00, 0x00, 
  };
