/* Created with The GIMP */
#define cycpent_width 16
#define cycpent_height 16
static unsigned char cycpent_bits[] = {
   0x00, 0x00, 0xc0, 0x03, 0x60, 0x06, 0x38, 0x1c, 0x0e, 0x70, 0x02, 0x40,
   0x02, 0x40, 0x06, 0x60, 0x04, 0x20, 0x0c, 0x30, 0x08, 0x10, 0x18, 0x18,
   0x10, 0x08, 0xf0, 0x0f, 0x00, 0x00, 0x00, 0x00 };
