/* Created with The GIMP */
#define cychex_width 16
#define cychex_height 16
static unsigned char cychex_bits[] = {
   0x00, 0x00, 0xc0, 0x03, 0x70, 0x0e, 0x1c, 0x38, 0x06, 0x60, 0x02, 0x40,
   0x02, 0x40, 0x02, 0x40, 0x02, 0x40, 0x02, 0x40, 0x02, 0x40, 0x06, 0x60,
   0x1c, 0x38, 0x70, 0x0e, 0xc0, 0x03, 0x00, 0x00 };
