#define cyc6_width 22
#define cyc6_height 20
static char cyc6_bits[] = {
  0x00, 0x00, 0x00, 0x00, 0x0C, 0x00, 0x00, 0x33, 0x00, 0xC0, 0xC0, 0x00, 
  0x30, 0x00, 0x03, 0x08, 0x00, 0x04, 0x08, 0x00, 0x0C, 0x08, 0x00, 0x04, 
  0x08, 0x00, 0x0C, 0x08, 0x00, 0x04, 0x08, 0x00, 0x0C, 0x08, 0x00, 0x04, 
  0x08, 0x00, 0x0C, 0x08, 0x00, 0x04, 0x30, 0x00, 0x03, 0xC0, 0xC0, 0x02, 
  0x00, 0xB3, 0x00, 0x00, 0x1C, 0x00, 0x00, 0x00, 0x00, 0x00, 0x00, 0x00, 
  };
