/* Created with The GIMP */
#define cyc7_width 16
#define cyc7_height 16
static unsigned char cyc7_bits[] = {
   0xc0, 0x03, 0x70, 0x0e, 0x1c, 0x38, 0x07, 0xe0, 0x01, 0x80, 0x01, 0x80,
   0x01, 0x80, 0x01, 0x80, 0x01, 0x80, 0x01, 0x80, 0x03, 0xc0, 0x06, 0x60,
   0x0c, 0x30, 0x18, 0x18, 0x30, 0x0c, 0xe0, 0x07 };
