#define cyc7_width 22
#define cyc7_height 22
static char cyc7_bits[] = {
  0x00, 0x00, 0x00, 0x00, 0x1C, 0x00, 0x00, 0x63, 0x00, 0xC0, 0x80, 0x01, 
  0x30, 0x00, 0x06, 0x08, 0x00, 0x08, 0x08, 0x00, 0x18, 0x08, 0x00, 0x08, 
  0x08, 0x00, 0x08, 0x08, 0x00, 0x18, 0x08, 0x00, 0x08, 0x10, 0x00, 0x04, 
  0x10, 0x00, 0x0C, 0x20, 0x00, 0x02, 0x20, 0x00, 0x02, 0x40, 0x00, 0x03, 
  0x80, 0xFF, 0x00, 0x00, 0x59, 0x01, 0x00, 0x00, 0x00, 0x00, 0x00, 0x00, 
  0x00, 0x00, 0x00, 0x00, 0x00, 0x00, };
