/* Created with The GIMP */
#define phenyl_width 16
#define phenyl_height 16
static unsigned char phenyl_bits[] = {
   0x00, 0x00, 0xc0, 0x03, 0x70, 0x0e, 0x1c, 0x38, 0x06, 0x63, 0x02, 0x4c,
   0x0a, 0x40, 0x0a, 0x40, 0x0a, 0x40, 0x0a, 0x40, 0x02, 0x4c, 0x06, 0x63,
   0x1c, 0x38, 0x70, 0x0e, 0xc0, 0x03, 0x00, 0x00 };
