#define cyc4_width 22
#define cyc4_height 22
static char cyc4_bits[] = {
  0x00, 0x00, 0x00, 0x00, 0x00, 0x00, 0xF0, 0xFF, 0x07, 0x10, 0x00, 0x04, 
  0x10, 0x00, 0x0C, 0x10, 0x00, 0x04, 0x10, 0x00, 0x0C, 0x10, 0x00, 0x04, 
  0x10, 0x00, 0x0C, 0x10, 0x00, 0x04, 0x10, 0x00, 0x0C, 0x10, 0x00, 0x04, 
  0x10, 0x00, 0x0C, 0x10, 0x00, 0x04, 0x10, 0x00, 0x0C, 0x10, 0x00, 0x04, 
  0x10, 0x00, 0x0C, 0xF0, 0xFF, 0x07, 0x80, 0xA6, 0x0A, 0x00, 0x00, 0x00, 
  0x00, 0x00, 0x00, 0x00, 0x00, 0x00, };
