#define cyc7_width 22
#define cyc7_height 20
static char cyc7_bits[] = {
  0x00, 0x00, 0x00, 0x00, 0x0E, 0x00, 0x80, 0x31, 0x00, 0x60, 0xC0, 0x00, 
  0x18, 0x00, 0x03, 0x04, 0x00, 0x04, 0x04, 0x00, 0x0C, 0x04, 0x00, 0x04, 
  0x04, 0x00, 0x0C, 0x04, 0x00, 0x04, 0x04, 0x00, 0x0C, 0x08, 0x00, 0x02, 
  0x08, 0x00, 0x02, 0x10, 0x00, 0x01, 0x10, 0x00, 0x03, 0x20, 0x80, 0x00, 
  0xC0, 0x7F, 0x00, 0x00, 0x59, 0x00, 0x00, 0x00, 0x00, 0x00, 0x00, 0x00, 
  };
